<?xml version="1.0" encoding="UTF-8" standalone="no"?><!DOCTYPE svg PUBLIC "-//W3C//DTD SVG 1.1//EN" "http://www.w3.org/Graphics/SVG/1.1/DTD/svg11.dtd"><svg width="100%" height="100%" viewBox="0 0 3367 2370" version="1.1" xmlns="http://www.w3.org/2000/svg" xmlns:xlink="http://www.w3.org/1999/xlink" xml:space="preserve" xmlns:serif="http://www.serif.com/" style="fill-rule:evenodd;clip-rule:evenodd;stroke-linecap:round;stroke-linejoin:round;stroke-miterlimit:1.5;"><rect id="Artboard1" x="0" y="0" width="3366.874" height="2369.315" style="fill:none;"/><path d="M974,279.5l0,85c0,23.456 -19.044,42.5 -42.5,42.5l-769,0c-23.456,0 -42.5,-19.044 -42.5,-42.5l0,-85c0,-23.456 19.044,-42.5 42.5,-42.5l769,0c23.456,0 42.5,19.044 42.5,42.5Z" style="fill:#dff2ff;stroke:#025985;stroke-width:4.17px;"/><g><path d="M1497.5,719.703l0,89c0,24.56 -19.94,44.5 -44.5,44.5l-899,0c-24.56,0 -44.5,-19.94 -44.5,-44.5l0,-89c0,-24.56 19.94,-44.5 44.5,-44.5l899,0c24.56,0 44.5,19.94 44.5,44.5Z" style="fill:#f8fafc;stroke:#65748b;stroke-width:4.17px;"/></g><path d="M1338.5,1025.949l0,77.5c0,21.387 -17.363,38.75 -38.75,38.75l-592.5,0c-21.387,0 -38.75,-17.363 -38.75,-38.75l0,-77.5c0,-21.387 17.363,-38.75 38.75,-38.75l592.5,0c21.387,0 38.75,17.363 38.75,38.75Z" style="fill:#f8fafc;stroke:#65748b;stroke-width:4.17px;"/><g><path d="M1908.963,1400.691l0,66.5c0,18.351 -14.899,33.25 -33.25,33.25l-736.5,0c-18.351,0 -33.25,-14.899 -33.25,-33.25l0,-66.5c0,-18.351 14.899,-33.25 33.25,-33.25l736.5,0c18.351,0 33.25,14.899 33.25,33.25Z" style="fill:#dcfce7;stroke:#186534;stroke-width:4.17px;"/><g transform="matrix(0.91704,0,0,0.513089,770.163108,1241.633746)"><rect x="392" y="294" width="824" height="191" style="fill:#28fefd;fill-opacity:0;fill-rule:nonzero;"/><g transform="matrix(1.090465,0,0,1.94898,-35.462261,-279)"><text x="392px" y="317.261px" style="font-family:'Chalkboard', cursive;font-size:33.333px;">n<tspan x="409.79px 426.88px 444.486px 452.037px 468.464px " y="317.261px 317.261px 317.261px 317.261px 317.261px ">onicu</tspan>_r<tspan x="519.624px 537.488px 555.757px 568.133px 576.972px 594.762px 611.853px 629.459px 637.009px 653.436px " y="317.261px 317.261px 317.261px 317.261px 317.261px 317.261px 317.261px 317.261px 317.261px 317.261px ">aas.nonicu</tspan>_a<tspan x="711.19px 728.317px 753.4px 761.724px " y="317.261px 317.261px 317.261px 317.261px ">dmis</tspan>sio<tspan x="815.867px 832.884px " y="317.261px 317.261px ">ns</tspan></text><g transform="matrix(33.333333,0,0,33.333333,488.243094,367.260638)"></g><g transform="matrix(33.333333,0,0,33.333333,500.42716,367.260638)"></g><text x="392px" y="367.261px" style="font-family:'Chalkboard', cursive;font-size:33.333px;">sin<tspan x="432.221px 449.79px 457.967px 475.499px " y="367.261px 367.261px 367.261px 367.261px ">gle </tspan>ﬁna<tspan x="542.092px 552.11px 564.855px 583.823px 600.95px 619.44px 625.959px 641.208px 653.952px 671.742px 688.832px 705.849px " y="367.261px 367.261px 367.261px 367.261px 367.261px 367.261px 367.261px 367.261px 367.261px 367.261px 367.261px 367.261px ">l adult non-</tspan>ICU a<tspan x="809.68px 826.807px 851.89px 860.214px " y="367.261px 367.261px 367.261px 367.261px ">dmis</tspan>sio<tspan x="914.357px 931.374px 947.249px 955.425px 972.773px 988.022px 1005.554px " y="367.261px 367.261px 367.261px 367.261px 367.261px 367.261px 367.261px ">n-level</tspan> c<tspan x="1043.713px 1059.956px 1078.077px 1094.836px 1109.459px " y="367.261px 367.261px 367.261px 367.261px 367.261px ">ohort</tspan></text></g></g></g><path d="M2640.981,1800.039l0,55.5c0,15.316 -12.434,27.75 -27.75,27.75l-858.5,0c-15.316,0 -27.75,-12.434 -27.75,-27.75l0,-55.5c0,-15.316 12.434,-27.75 27.75,-27.75l858.5,0c15.316,0 27.75,12.434 27.75,27.75Z" style="fill:#dcfce7;stroke:#186534;stroke-width:4.17px;"/><g transform="matrix(1.043254,0,0,0.460733,1345.205561,1650.2953)"><rect x="392" y="294" width="824" height="191" style="fill:#28fefd;fill-opacity:0;fill-rule:nonzero;"/><g transform="matrix(0.95854,0,0,2.170455,16.252439,-344.113636)"><text x="392px" y="317.261px" style="font-family:'Chalkboard', cursive;font-size:33.333px;">n<tspan x="409.79px 426.88px 444.486px 452.037px 468.464px " y="317.261px 317.261px 317.261px 317.261px 317.261px ">onicu</tspan>_r<tspan x="519.624px 537.488px 555.757px 568.133px 576.936px 593.436px 611.558px 629.569px 646.144px 660.508px 678.63px 692.479px 710.011px 731.19px 743.565px 761.429px 779.698px 794.063px " y="317.261px 317.261px 317.261px 317.261px 317.261px 317.261px 317.261px 317.261px 317.261px 317.261px 317.261px 317.261px 317.261px 317.261px 317.261px 317.261px 317.261px 317.261px ">aas.exposure_raas_</tspan>ea<tspan x="850.158px 865.517px 874.247px " y="317.261px 317.261px 317.261px ">rly</tspan></text><g transform="matrix(33.333333,0,0,33.333333,950.747698,367.260638)"></g><text x="392px" y="367.261px" style="font-family:'Chalkboard', cursive;font-size:33.333px;">ea<tspan x="426.917px 442.276px 451.006px 468.869px 479.33px 501.061px 520.619px " y="367.261px 367.261px 367.261px 367.261px 367.261px 367.261px 367.261px ">rly ACE</tspan>i / <tspan x="588.538px 610.048px " y="367.261px 367.261px ">AR</tspan>B e<tspan x="679.109px 697.23px 715.241px 731.816px 746.18px 764.302px 778.151px 795.683px " y="367.261px 367.261px 367.261px 367.261px 367.261px 367.261px 367.261px 367.261px ">xposure </tspan>in<tspan x="835.278px 852.405px 859.956px 875.131px 890.711px 904.486px 921.245px " y="367.261px 367.261px 367.261px 367.261px 367.261px 367.261px 367.261px ">dicator</tspan>s</text></g></g><g><path d="M2089.463,2137.698l0,57c0,15.73 -12.77,28.5 -28.5,28.5l-437,0c-15.73,0 -28.5,-12.77 -28.5,-28.5l0,-57c0,-15.73 12.77,-28.5 28.5,-28.5l437,0c15.73,0 28.5,12.77 28.5,28.5Z" style="fill:#dcfce7;stroke:#186534;stroke-width:4.17px;"/><g transform="matrix(0.548108,0,0,0.507853,1407.284467,1970.350939)"><rect x="392" y="294" width="824" height="191" style="fill:#28fefd;fill-opacity:0;fill-rule:nonzero;"/><g transform="matrix(1.824458,0,0,1.969072,-323.187542,-284.907216)"><path d="M824.523,284.59c0,0 0,42.099 0,42.099c-0,0 -0,-42.099 -0,-42.099Z" style="fill:#eaeeff;"/><path d="M772.737,334.59c0,0 0,42.099 0,42.099c-0,0 -0,-42.099 -0,-42.099Z" style="fill:#eaeeff;"/></g><g transform="matrix(1.824458,0,0,1.969072,-323.187542,-284.907216)"><text x="392px" y="317.261px" style="font-family:'Chalkboard', cursive;font-size:33.333px;">n<tspan x="409.79px 426.88px 444.486px 452.037px 468.464px " y="317.261px 317.261px 317.261px 317.261px 317.261px ">onicu</tspan>_r<tspan x="519.624px 537.488px 555.757px 568.133px 577.967px " y="317.261px 317.261px 317.261px 317.261px 317.261px ">aas.a</tspan>na<tspan x="630.453px 639.182px 657.046px " y="317.261px 317.261px 317.261px ">lys</tspan>is_da<tspan x="747.985px 760.582px 778.851px 793.215px 809.274px " y="317.261px 317.261px 317.261px 317.261px 317.261px ">taset</tspan></text><g transform="matrix(33.333333,0,0,33.333333,455.646409,367.260638)"></g><g transform="matrix(33.333333,0,0,33.333333,467.830475,367.260638)"></g><text x="392px" y="367.261px" style="font-family:'Chalkboard', cursive;font-size:33.333px;">the ﬁna<tspan x="509.495px 519.514px " y="367.261px 367.261px ">l </tspan>ana<tspan x="584.744px 593.473px 611.337px 626.77px 634.32px 650.748px " y="367.261px 367.261px 367.261px 367.261px 367.261px 367.261px ">lytic </tspan>da<tspan x="696.199px 708.796px 727.064px 741.429px 757.488px " y="367.261px 367.261px 367.261px 367.261px 367.261px ">taset</tspan></text></g></g></g><path d="M1610.461,280.447l0,85.5c0,23.594 -19.156,42.75 -42.75,42.75l-536.5,0c-23.594,0 -42.75,-19.156 -42.75,-42.75l0,-85.5c0,-23.594 19.156,-42.75 42.75,-42.75l536.5,0c23.594,0 42.75,19.156 42.75,42.75Z" style="fill:#dff2ff;stroke:#025985;stroke-width:4.17px;"/><path d="M2381.982,280.763l0,85c0,23.456 -19.044,42.5 -42.5,42.5l-658,0c-23.456,0 -42.5,-19.044 -42.5,-42.5l0,-85c0,-23.456 19.044,-42.5 42.5,-42.5l658,0c23.456,0 42.5,19.044 42.5,42.5Z" style="fill:#dff2ff;stroke:#025985;stroke-width:4.17px;"/><g transform="matrix(1,0,0,1,-255,-46)"><text x="392px" y="317.261px" style="font-family:'Chalkboard', cursive;font-size:33.333px;">ho<tspan x="426.696px 441.061px 456.641px 466.475px 485.444px 502.571px 527.654px 535.978px " y="317.261px 317.261px 317.261px 317.261px 317.261px 317.261px 317.261px 317.261px ">sp.admis</tspan>sio<tspan x="590.122px 607.138px " y="317.261px 317.261px ">ns</tspan></text><text x="392px" y="367.261px" style="font-family:'Chalkboard', cursive;font-size:33.333px;">c<tspan x="407.654px 425.186px 440.95px 456.199px 468.575px 486.18px 496.199px 508.943px 527.912px 545.039px 570.122px 578.446px " y="367.261px 367.261px 367.261px 367.261px 367.261px 367.261px 367.261px 367.261px 367.261px 367.261px 367.261px 367.261px ">entral admis</tspan>sio<tspan x="632.589px 649.606px 665.481px 673.657px 691.006px 706.254px 723.786px " y="367.261px 367.261px 367.261px 367.261px 367.261px 367.261px 367.261px ">n-level</tspan> so<tspan x="778.188px 796.309px 810.49px 826.144px 843.676px " y="367.261px 367.261px 367.261px 367.261px 367.261px ">urce;</tspan></text><g transform="matrix(33.333333,0,0,33.333333,1112.073665,417.260638)"></g><g transform="matrix(33.333333,0,0,33.333333,1126.304172,417.260638)"></g><text x="392px" y="417.261px" style="font-family:'Chalkboard', cursive;font-size:33.333px;">a<tspan x="410.969px 428.096px 453.179px 461.503px " y="417.261px 417.261px 417.261px 417.261px ">dmis</tspan>sio<tspan x="515.646px 532.663px 547.138px 564.265px 572.589px 586.622px 603.087px 621.208px 638.593px 652.7px 670.785px 688.317px 701.061px 716.457px 733.547px 749.311px 762.902px 779.403px 797.967px " y="417.261px 417.261px 417.261px 417.261px 417.261px 417.261px 417.261px 417.261px 417.261px 417.261px 417.261px 417.261px 417.261px 417.261px 417.261px 417.261px 417.261px 417.261px 417.261px ">n/discharge context</tspan> + ho<tspan x="891.374px 905.738px 923.344px 929.238px 941.834px 959.44px 969.459px 990.637px 1007.138px 1025.26px 1042.866px " y="417.261px 417.261px 417.261px 417.261px 417.261px 417.261px 417.261px 417.261px 417.261px 417.261px 417.261px ">spital_expi</tspan>r<tspan x="1073.363px 1090.895px " y="417.261px 417.261px ">e_</tspan>ﬂag</text></g><g transform="matrix(2.203931,0,0,0.725275,696.017199,62.593407)"><rect x="250" y="115" width="407" height="91" style="fill:#28fefd;fill-opacity:0;fill-rule:nonzero;"/><g transform="matrix(0.453735,0,0,1.378788,136.566332,-43.560606)"><g transform="matrix(62.5,0,0,62.5,1113.052486,158.613696)"></g><text x="250px" y="158.614px" style="font-family:'Chalkboard', cursive;font-size:62.5px;fill:#025985;">N<tspan x="290.262px 319.475px 348.412px 364.088px 392.68px 425.552px " y="158.614px 158.614px 158.614px 158.614px 158.614px 158.614px ">ative </tspan>MIMIC-IV so<tspan x="826.036px 860.014px 886.602px 915.953px 948.826px 972.721px 996.34px 1029.903px 1064.848px 1080.18px " y="158.614px 158.614px 158.614px 158.614px 158.614px 158.614px 158.614px 158.614px 158.614px 158.614px ">urce table</tspan></text></g></g><path d="M924.421,538.988l0,126.012" style="fill:none;stroke:#000;stroke-width:20.83px;"/><path d="M547,426l0,111.909" style="fill:none;stroke:#000;stroke-width:20.83px;"/><g><path d="M549.403,537.909l750.036,0" style="fill:none;stroke:#000;stroke-width:20.83px;"/></g><path d="M1299.461,425.764l0,111.067" style="fill:none;stroke:#000;stroke-width:20.83px;"/><path d="M1467.963,1253.333l0,96.012" style="fill:none;stroke:#000;stroke-width:20.83px;"/><path d="M1467.963,1518.501l0,459.012" style="fill:none;stroke:#000;stroke-width:20.83px;"/><path d="M2183.981,1661.814l0,96.012" style="fill:none;stroke:#000;stroke-width:20.83px;"/><path d="M1829.963,1993.128l0,96.012" style="fill:none;stroke:#000;stroke-width:20.83px;"/><path d="M2183.981,1900.116l0,74.012" style="fill:none;stroke:#000;stroke-width:20.83px;"/><path d="M924.421,1159.345l0,80.909" style="fill:none;stroke:#000;stroke-width:20.83px;"/><path d="M2768,698.458l0,1406.084c0,91.319 -74.139,165.458 -165.458,165.458l-2224.084,0c-91.319,0 -165.458,-74.139 -165.458,-165.458l0,-1406.084c0,-91.319 74.139,-165.458 165.458,-165.458l2224.084,0c91.319,0 165.458,74.139 165.458,165.458Z" style="fill:none;stroke:#186534;stroke-width:4.17px;stroke-linejoin:bevel;stroke-dasharray:20.833,20.833,0,0,0,0;"/><path d="M3327.253,135.191l0,289.797c0,18.821 -15.28,34.101 -34.101,34.101l-3196.797,0c-18.821,0 -34.101,-15.28 -34.101,-34.101l0,-289.797c0,-18.821 15.28,-34.101 34.101,-34.101l3196.797,0c18.821,0 34.101,15.28 34.101,34.101Z" style="fill:none;stroke:#025985;stroke-width:4.17px;stroke-linejoin:bevel;stroke-dasharray:20.833,20.833,0,0,0,0;"/><g><path d="M927.945,1240.254l1080.036,0" style="fill:none;stroke:#000;stroke-width:20.83px;"/></g><g><path d="M1477.463,1659.349l1383.036,0" style="fill:none;stroke:#000;stroke-width:20.83px;"/></g><g><path d="M1467.945,1979.128l715.036,0" style="fill:none;stroke:#000;stroke-width:20.83px;"/></g><path d="M2010.482,435.109l0,805.067" style="fill:none;stroke:#000;stroke-width:20.83px;"/><path d="M2860.54,427.109l0,1232.067" style="fill:none;stroke:#000;stroke-width:20.83px;"/><path d="M924.421,865.988l0,101.012" style="fill:none;stroke:#000;stroke-width:20.83px;"/><g transform="matrix(1,0,0,1,651.961234,-46)"><text x="392px" y="317.261px" style="font-family:'Chalkboard', cursive;font-size:33.333px;">ho<tspan x="426.696px 441.061px 456.641px 464.67px 482.276px 497.856px 513.289px 521.613px 539.145px 554.91px 570.158px " y="317.261px 317.261px 317.261px 317.261px 317.261px 317.261px 317.261px 317.261px 317.261px 317.261px 317.261px ">sp.patients</tspan></text><text x="392px" y="367.261px" style="font-family:'Chalkboard', cursive;font-size:33.333px;">pa<tspan x="425.186px 440.619px 448.943px 466.475px 482.239px 494.689px 510.564px 518.74px 536.088px 551.337px 568.869px " y="367.261px 367.261px 367.261px 367.261px 367.261px 367.261px 367.261px 367.261px 367.261px 367.261px 367.261px ">tient-level</tspan> so<tspan x="623.271px 641.392px 655.573px 671.227px " y="367.261px 367.261px 367.261px 367.261px ">urce</tspan></text><g transform="matrix(33.333333,0,0,33.333333,866.548803,417.260638)"></g><text x="392px" y="417.261px" style="font-family:'Chalkboard', cursive;font-size:33.333px;">(pa<tspan x="435.683px 451.116px 459.44px 476.972px 492.737px 507.985px 520.729px 536.125px 553.215px 568.98px 582.571px 599.072px 617.635px " y="417.261px 417.261px 417.261px 417.261px 417.261px 417.261px 417.261px 417.261px 417.261px 417.261px 417.261px 417.261px 417.261px ">tient context</tspan> + ag<tspan x="712.331px 729.864px " y="417.261px 417.261px ">e </tspan>su<tspan x="775.094px 792.7px 810.711px 827.47px 842.092px 856.052px " y="417.261px 417.261px 417.261px 417.261px 417.261px 417.261px ">pport)</tspan></text></g><g transform="matrix(1,0,0,1,1295.816788,-46)"><text x="392px" y="317.261px" style="font-family:'Chalkboard', cursive;font-size:33.333px;">i<tspan x="399.551px 415.978px " y="317.261px 317.261px ">cu</tspan>.i<tspan x="450.969px 467.396px 485.959px 498.74px 511.337px 529.238px " y="317.261px 317.261px 317.261px 317.261px 317.261px 317.261px ">custay</tspan>s</text><g transform="matrix(33.333333,0,0,33.333333,953.915285,367.260638)"></g><g transform="matrix(33.333333,0,0,33.333333,966.110748,367.260638)"></g><text x="392px" y="367.261px" style="font-family:'Chalkboard', cursive;font-size:33.333px;">ICU<tspan x="448.759px 464.634px 482.902px 497.267px 511.632px 528.427px 544.855px 552.442px 568.022px 581.613px 600.729px 617.856px 630.6px 649.569px 666.696px 691.779px 700.103px " y="367.261px 367.261px 367.261px 367.261px 367.261px 367.261px 367.261px 367.261px 367.261px 367.261px 367.261px 367.261px 367.261px 367.261px 367.261px 367.261px 367.261px ">-associated admis</tspan>sio<tspan x="754.247px 771.263px " y="367.261px 367.261px ">ns</tspan> (<tspan x="807.58px 824.081px 841.134px 857.599px 865.812px 884.376px 898.74px 907.064px 924.155px 941.171px " y="367.261px 367.261px 367.261px 367.261px 367.261px 367.261px 367.261px 367.261px 367.261px 367.261px ">exclusion </tspan>ﬁl<tspan x="979.661px 993.252px 1011.521px 1024.818px " y="367.261px 367.261px 367.261px 367.261px ">ter)</tspan></text></g><g transform="matrix(1,0,0,1,141.5,402.123904)"><text x="392px" y="317.261px" style="font-family:'Chalkboard', cursive;font-size:33.333px;">n<tspan x="409.79px 426.88px 444.486px 452.037px 468.464px " y="317.261px 317.261px 317.261px 317.261px 317.261px ">onicu</tspan>_r<tspan x="519.624px 537.488px 555.757px 568.133px 576.751px 594.615px 612.884px 627.249px " y="317.261px 317.261px 317.261px 317.261px 317.261px 317.261px 317.261px 317.261px ">aas.base</tspan>_a<tspan x="684.928px 702.055px 727.138px 735.462px " y="317.261px 317.261px 317.261px 317.261px ">dmis</tspan>sio<tspan x="789.606px 806.622px " y="317.261px 317.261px ">ns</tspan></text><text x="392px" y="367.261px" style="font-family:'Chalkboard', cursive;font-size:33.333px;">P<tspan x="410.785px 424.891px 439.477px 452.405px 470.49px 485.738px 498.188px 514.063px 530.49px 544.339px 561.871px 577.451px 591.042px 610.158px 627.285px " y="367.261px 367.261px 367.261px 367.261px 367.261px 367.261px 367.261px 367.261px 367.261px 367.261px 367.261px 367.261px 367.261px 367.261px 367.261px ">roject-created </tspan>BigQue<tspan x="746.144px 761.945px 779.808px 792.552px 805.149px 823.05px 841.687px 849.864px " y="367.261px 367.261px 367.261px 367.261px 367.261px 367.261px 367.261px 367.261px ">ry table</tspan></text><g transform="matrix(33.333333,0,0,33.333333,1292.184162,417.260638)"></g><text x="392px" y="417.261px" style="font-family:'Chalkboard', cursive;font-size:33.333px;">a<tspan x="410.969px 428.096px 446.586px 453.105px 468.354px " y="417.261px 417.261px 417.261px 417.261px 417.261px ">dult </tspan>ho<tspan x="515.794px 530.158px 547.764px 553.657px 566.254px 583.86px 593.878px 606.622px 625.591px 642.718px 667.801px 676.125px " y="417.261px 417.261px 417.261px 417.261px 417.261px 417.261px 417.261px 417.261px 417.261px 417.261px 417.261px 417.261px ">spital admis</tspan>sio<tspan x="730.269px 747.285px 760.029px 785.333px 791.227px 806.475px " y="417.261px 417.261px 417.261px 417.261px 417.261px 417.261px ">n with</tspan> pa<tspan x="870.527px 885.959px 894.284px 911.816px 927.58px 942.829px 955.573px 970.969px 988.059px 1003.823px 1017.414px 1033.915px 1052.479px " y="417.261px 417.261px 417.261px 417.261px 417.261px 417.261px 417.261px 417.261px 417.261px 417.261px 417.261px 417.261px 417.261px ">tient context</tspan> + ag<tspan x="1147.175px 1164.707px " y="417.261px 417.261px ">e </tspan>su<tspan x="1209.937px 1227.543px 1245.554px 1262.313px 1276.936px " y="417.261px 417.261px 417.261px 417.261px 417.261px ">pport</tspan></text></g><g transform="matrix(0.742283,0,0,0.680628,406.704678,799.887168)"><rect x="392" y="294" width="824" height="191" style="fill:#28fefd;fill-opacity:0;fill-rule:nonzero;"/><g transform="matrix(1.347196,0,0,1.469231,-136.100655,-137.953846)"><text x="415.622px" y="340.883px" style="font-family:'Chalkboard', cursive;font-size:33.333px;">n<tspan x="433.412px 450.502px 468.108px 475.659px 492.086px " y="340.883px 340.883px 340.883px 340.883px 340.883px ">onicu</tspan>_r<tspan x="543.246px 561.11px 579.379px 591.755px 600.373px 618.237px 636.506px 650.871px " y="340.883px 340.883px 340.883px 340.883px 340.883px 340.883px 340.883px 340.883px ">aas.base</tspan>_a<tspan x="708.55px 725.677px 750.76px 759.084px " y="340.883px 340.883px 340.883px 340.883px ">dmis</tspan>sio<tspan x="813.228px 830.245px " y="340.883px 340.883px ">ns</tspan>_r<tspan x="878.163px 894.996px 910.65px 928.182px 946.709px " y="340.883px 340.883px 340.883px 340.883px 340.883px ">acegr</tspan>p</text><text x="415.622px" y="390.883px" style="font-family:'Chalkboard', cursive;font-size:33.333px;">c<tspan x="431.018px 447.261px 456.764px 464.572px 482.473px " y="390.883px 390.883px 390.883px 390.883px 390.883px ">ollap</tspan>se<tspan x="533.559px 550.687px 563.431px 575.806px 592.639px 608.292px 625.825px 638.569px 653.744px 669.324px 682.915px 700.447px 718.79px 735.548px 751.018px 759.342px 777.648px " y="390.883px 390.883px 390.883px 390.883px 390.883px 390.883px 390.883px 390.883px 390.883px 390.883px 390.883px 390.883px 390.883px 390.883px 390.883px 390.883px 390.883px ">d race categories</tspan></text></g></g><g transform="matrix(0.916497,0,0,0.309677,1555.53649,1412.441396)"><rect x="345" y="1952" width="491" height="155" style="fill:#28fefd;fill-opacity:0;fill-rule:nonzero;"/><g transform="matrix(1.091111,0,0,3.229167,-31.433333,-4351.333333)"><g transform="matrix(33.333333,0,0,33.333333,794.171271,1975.260638)"></g><text x="345px" y="1975.261px" style="font-family:'Chalkboard', cursive;font-size:33.333px;">jo<tspan x="375.35px 383.674px " y="1975.261px 1975.261px ">in</tspan> k<tspan x="429.788px 446.51px 464.153px 473.656px " y="1975.261px 1975.261px 1975.261px 1975.261px ">ey: </tspan>subje<tspan x="568.02px 583.269px 598.517px 619.696px 629.199px 646.326px " y="1975.261px 1975.261px 1975.261px 1975.261px 1975.261px 1975.261px ">ct_id,</tspan> ha<tspan x="704.669px 721.796px " y="1975.261px 1975.261px ">dm</tspan>_i<tspan x="777.044px " y="1975.261px ">d</tspan></text></g></g><g transform="matrix(0.916497,0,0,0.309677,1899.817615,1091.674936)"><rect x="345" y="1952" width="491" height="155" style="fill:#28fefd;fill-opacity:0;fill-rule:nonzero;"/><g transform="matrix(1.091111,0,0,3.229167,-31.433333,-4351.333333)"><g transform="matrix(33.333333,0,0,33.333333,794.171271,1975.260638)"></g><text x="345px" y="1975.261px" style="font-family:'Chalkboard', cursive;font-size:33.333px;">jo<tspan x="375.35px 383.674px " y="1975.261px 1975.261px ">in</tspan> k<tspan x="429.788px 446.51px 464.153px 473.656px " y="1975.261px 1975.261px 1975.261px 1975.261px ">ey: </tspan>subje<tspan x="568.02px 583.269px 598.517px 619.696px 629.199px 646.326px " y="1975.261px 1975.261px 1975.261px 1975.261px 1975.261px 1975.261px ">ct_id,</tspan> ha<tspan x="704.669px 721.796px " y="1975.261px 1975.261px ">dm</tspan>_i<tspan x="777.044px " y="1975.261px ">d</tspan></text></g></g><g transform="matrix(0.916497,0,0,0.309677,1229.990291,680.048165)"><rect x="345" y="1952" width="491" height="155" style="fill:#28fefd;fill-opacity:0;fill-rule:nonzero;"/><g transform="matrix(1.091111,0,0,3.229167,-31.433333,-4351.333333)"><g transform="matrix(33.333333,0,0,33.333333,794.171271,1975.260638)"></g><text x="345px" y="1975.261px" style="font-family:'Chalkboard', cursive;font-size:33.333px;">jo<tspan x="375.35px 383.674px " y="1975.261px 1975.261px ">in</tspan> k<tspan x="429.788px 446.51px 464.153px 473.656px " y="1975.261px 1975.261px 1975.261px 1975.261px ">ey: </tspan>subje<tspan x="568.02px 583.269px 598.517px 619.696px 629.199px 646.326px " y="1975.261px 1975.261px 1975.261px 1975.261px 1975.261px 1975.261px ">ct_id,</tspan> ha<tspan x="704.669px 721.796px " y="1975.261px 1975.261px ">dm</tspan>_i<tspan x="777.044px " y="1975.261px ">d</tspan></text></g></g><g transform="matrix(0.916497,0,0,0.303226,685.184784,301.236672)"><rect x="345" y="1952" width="491" height="155" style="fill:#28fefd;fill-opacity:0;fill-rule:nonzero;"/><g transform="matrix(1.091111,0,0,3.297872,-31.433333,-4485.446809)"><g transform="matrix(33.333333,0,0,33.333333,702.679558,1975.260638)"></g><text x="345px" y="1975.261px" style="font-family:'Chalkboard', cursive;font-size:33.333px;">c<tspan x="360.396px 376.639px 386.142px 393.95px 411.851px " y="1975.261px 1975.261px 1975.261px 1975.261px 1975.261px ">ollap</tspan>se r<tspan x="486.473px 503.306px 518.959px 536.492px 549.236px 564.411px 579.991px 593.582px 611.114px 629.457px 646.215px 661.685px 670.009px 688.315px " y="1975.261px 1975.261px 1975.261px 1975.261px 1975.261px 1975.261px 1975.261px 1975.261px 1975.261px 1975.261px 1975.261px 1975.261px 1975.261px 1975.261px ">ace categories</tspan></text></g></g><g transform="matrix(1.808554,0,0,0.445161,368.29804,-284.171233)"><rect x="345" y="1952" width="491" height="155" style="fill:#28fefd;fill-opacity:0;fill-rule:nonzero;"/><g transform="matrix(0.552928,0,0,2.246377,154.239865,-2432.927536)"><text x="345px" y="1975.261px" style="font-family:'Chalkboard', cursive;font-size:33.333px;">Co<tspan x="381.832px 406.4px " y="1975.261px 1975.261px ">mb</tspan>in<tspan x="450.893px 468.425px " y="1975.261px 1975.261px ">e </tspan>pa<tspan x="514.355px 529.788px 538.112px 555.645px 571.409px 586.657px " y="1975.261px 1975.261px 1975.261px 1975.261px 1975.261px 1975.261px ">tients</tspan> da<tspan x="646.473px 659.07px 676.934px 689.678px 714.982px 720.875px 736.123px " y="1975.261px 1975.261px 1975.261px 1975.261px 1975.261px 1975.261px 1975.261px ">ta with</tspan> ho<tspan x="801.685px 816.05px 833.656px 839.549px 852.145px 869.751px 879.77px 892.514px 911.483px 928.61px 953.692px 962.017px " y="1975.261px 1975.261px 1975.261px 1975.261px 1975.261px 1975.261px 1975.261px 1975.261px 1975.261px 1975.261px 1975.261px 1975.261px ">spital admis</tspan>sio<tspan x="1016.16px 1033.177px " y="1975.261px 1975.261px ">ns</tspan> (inpa<tspan x="1129.309px 1144.742px 1153.066px 1170.599px 1186.363px " y="1975.261px 1975.261px 1975.261px 1975.261px 1975.261px ">tient</tspan>)</text><text x="345px" y="2008.594px" style="font-family:'LucidaGrande', 'Lucida Grande', sans-serif;font-weight:500;font-size:33.333px;">join key: subject_id</text></g></g><path d="M3316.04,277.013l0,87.5c0,24.146 -19.604,43.75 -43.75,43.75l-823.5,0c-24.146,0 -43.75,-19.604 -43.75,-43.75l0,-87.5c0,-24.146 19.604,-43.75 43.75,-43.75l823.5,0c24.146,0 43.75,19.604 43.75,43.75Z" style="fill:#dff2ff;stroke:#025985;stroke-width:4.17px;"/><g transform="matrix(1.020048,0,0,0.486911,2046.795174,104.848168)"><g transform="matrix(0.980346,0,0,2.053763,7.704263,-309.806452)"><rect x="392" y="334.59" width="812.928" height="42.099" style="fill:#d9effe;"/></g><g transform="matrix(0.980346,0,0,2.053763,7.704263,-309.806452)"><text x="392px" y="317.261px" style="font-family:'Chalkboard', cursive;font-size:33.333px;">ho<tspan x="426.696px 441.061px 456.641px 464.67px 481.503px 495.352px 513.657px 527.691px 544.118px 559.587px 567.138px 582.497px 597.93px 606.254px 623.344px 640.361px " y="317.261px 317.261px 317.261px 317.261px 317.261px 317.261px 317.261px 317.261px 317.261px 317.261px 317.261px 317.261px 317.261px 317.261px 317.261px 317.261px ">sp.prescriptions</tspan></text><text x="392px" y="367.261px" style="font-family:'Chalkboard', cursive;font-size:33.333px;">so<tspan x="423.639px 441.761px 455.941px 471.595px 489.127px 501.871px 515.241px 532px 546.586px " y="367.261px 367.261px 367.261px 367.261px 367.261px 367.261px 367.261px 367.261px 367.261px ">urce for </tspan>ea<tspan x="594.247px 609.606px 618.335px 636.199px 646.659px 668.39px 687.948px " y="367.261px 367.261px 367.261px 367.261px 367.261px 367.261px 367.261px ">rly ACE</tspan>i / <tspan x="755.867px 777.378px " y="367.261px 367.261px ">AR</tspan>B p<tspan x="846.77px 860.619px 878.924px 892.958px 909.385px 924.855px 932.405px 947.764px 963.197px 971.521px 988.611px 1005.628px 1018.372px 1035.131px 1049.937px 1067.064px 1085.333px 1099.919px 1112.663px 1128.096px 1136.42px 1161.503px 1169.827px 1187.359px " y="367.261px 367.261px 367.261px 367.261px 367.261px 367.261px 367.261px 367.261px 367.261px 367.261px 367.261px 367.261px 367.261px 367.261px 367.261px 367.261px 367.261px 367.261px 367.261px 367.261px 367.261px 367.261px 367.261px 367.261px ">rescription order timing</tspan></text></g></g><g transform="matrix(0,-7.299213,0.487395,0,-947.252101,7862.062992)"><rect x="809" y="2479" width="127" height="119" style="fill:#28fefd;fill-opacity:0;fill-rule:nonzero;"/><g transform="matrix(0.137001,0,0,2.051724,698.166127,-2607.224138)"><g transform="matrix(62.5,0,0,62.5,1700.367403,2522.613696)"></g><text x="809px" y="2522.614px" style="font-family:'Chalkboard', cursive;font-size:62.5px;fill:#186534;">P<tspan x="844.221px 870.671px 898.019px 922.26px 956.169px 984.76px 1008.102px 1037.867px 1068.669px 1094.635px 1127.508px 1156.721px 1182.204px 1218.047px 1250.16px " y="2522.614px 2522.614px 2522.614px 2522.614px 2522.614px 2522.614px 2522.614px 2522.614px 2522.614px 2522.614px 2522.614px 2522.614px 2522.614px 2522.614px 2522.614px ">roject-created </tspan>BigQue<tspan x="1473.019px 1502.646px 1536.141px 1560.036px 1583.655px 1617.218px 1652.163px 1667.494px " y="2522.614px 2522.614px 2522.614px 2522.614px 2522.614px 2522.614px 2522.614px 2522.614px ">ry table</tspan></text></g></g></svg>